<?xml version="1.0" encoding="utf-8"?>
<!-- Generator: Adobe Illustrator 22.0.0, SVG Export Plug-In . SVG Version: 6.00 Build 0)  -->
<svg version="1.1" id="Calque_1" xmlns="http://www.w3.org/2000/svg" xmlns:xlink="http://www.w3.org/1999/xlink" x="0px" y="0px"
	 viewBox="0 0 473.3 264" style="enable-background:new 0 0 473.3 264;" xml:space="preserve">
<style type="text/css">
	.st0{fill:#E2071C;}
	.st1{fill:#E21F1D;}
	.st2{fill:#FFFFFF;}
</style>
<g>
	<g>
		<rect x="49.3" y="50.9" class="st0" width="176.4" height="176.4"/>
	</g>
	<g>
		<path class="st1" d="M418.4,56.5v165.1H233.8V56.5H418.4 M424,50.9H228.2v176.4H424V50.9L424,50.9z"/>
	</g>
	<g>
		<path class="st2" d="M73.6,127.1c2.3,0,3.9-0.9,5.2-2.3l1.5,1.4c-1.7,1.9-3.7,3.1-6.8,3.1c-4.5,0-8.3-3.5-8.3-8.6
			c0-4.8,3.4-8.6,7.9-8.6c4.9,0,7.7,3.9,7.7,8.8c0,0.2,0,0.5,0,0.9H67.7C68.1,125.1,70.7,127.1,73.6,127.1z M78.4,119.7
			c-0.3-3-2-5.6-5.3-5.6c-2.8,0-5,2.4-5.4,5.6H78.4z"/>
		<path class="st2" d="M83.1,112.4h2.5v2.8c1.1-1.6,2.6-3.1,5.3-3.1c2.7,0,4.4,1.4,5.3,3.3c1.2-1.8,2.9-3.3,5.8-3.3
			c3.8,0,6.1,2.6,6.1,6.7V129h-2.5v-9.7c0-3.2-1.6-5-4.3-5c-2.5,0-4.6,1.9-4.6,5.1v9.5h-2.4v-9.7c0-3.1-1.6-4.9-4.3-4.9
			c-2.6,0-4.6,2.2-4.6,5.2v9.4h-2.5v-16.5H83.1z"/>
		<path class="st2" d="M65.9,132.5h4.9v23.4h-4.9V132.5z"/>
		<path class="st2" d="M73.1,159.9l1.6-3.5c0.6,0.4,1.4,0.7,2.1,0.7c0.8,0,1.3-0.3,1.7-1.1l-6.7-17.2H77l3.9,11.7l3.7-11.7h5.1
			L83,156.3c-1.3,3.5-2.7,4.8-5.6,4.8C75.6,161.1,74.3,160.7,73.1,159.9z"/>
		<path class="st2" d="M88.6,147.4L88.6,147.4c0-5,4-9,9.3-9s9.2,3.9,9.2,8.9v0.1c0,4.9-4,8.9-9.3,8.9
			C92.5,156.3,88.6,152.3,88.6,147.4z M102.4,147.4L102.4,147.4c0-2.6-1.8-4.8-4.5-4.8c-2.8,0-4.4,2.1-4.4,4.7v0.1
			c0,2.5,1.8,4.7,4.5,4.7C100.7,152.1,102.4,149.9,102.4,147.4z"/>
		<path class="st2" d="M108.6,138.7h4.9v2.4c1.1-1.4,2.6-2.8,5-2.8c3.7,0,5.8,2.4,5.8,6.4v11.1h-4.9v-9.6c0-2.3-1.1-3.5-2.9-3.5
			c-1.9,0-3,1.2-3,3.5v9.6h-4.9V138.7z"/>
		<path class="st2" d="M70.6,180.7v2.2h-4.9v-23.4h4.9v8.7c1.2-1.6,2.8-2.8,5.3-2.8c4,0,7.8,3.1,7.8,8.9v0.1c0,5.7-3.7,8.9-7.8,8.9
			C73.3,183.2,71.7,182,70.6,180.7z M78.8,174.4L78.8,174.4c0-2.9-1.9-4.8-4.2-4.8s-4.2,1.9-4.2,4.7v0.1c0,2.8,1.9,4.7,4.2,4.7
			S78.8,177.2,78.8,174.4z"/>
		<path class="st2" d="M85.1,176.9v-11.1H90v9.6c0,2.3,1.1,3.5,2.9,3.5c1.9,0,3-1.2,3-3.5v-9.6h4.9V183h-4.9v-2.4
			c-1.1,1.4-2.6,2.8-5,2.8C87.2,183.2,85.1,180.8,85.1,176.9z"/>
		<path class="st2" d="M101.7,180.6l2.1-3.2c1.9,1.3,3.8,2,5.4,2c1.4,0,2-0.5,2-1.3V178c0-1.1-1.7-1.4-3.6-2
			c-2.4-0.7-5.1-1.8-5.1-5.2v-0.1c0-3.5,2.8-5.4,6.3-5.4c2.2,0,4.5,0.7,6.4,2l-1.9,3.4c-1.7-1-3.4-1.6-4.6-1.6s-1.8,0.5-1.8,1.2v0.1
			c0,1,1.6,1.4,3.5,2c2.4,0.8,5.2,2,5.2,5.1v0.1c0,3.8-2.8,5.5-6.6,5.5C106.7,183.2,104,182.4,101.7,180.6z"/>
		<path class="st2" d="M117.2,159.5h5.1v4.3h-5.1V159.5z M117.3,165.7h4.9v17.2h-4.9V165.7z"/>
		<path class="st2" d="M124.6,165.7h4.9v2.4c1.1-1.4,2.6-2.8,5-2.8c3.7,0,5.8,2.4,5.8,6.4v11.1h-4.9v-9.6c0-2.3-1.1-3.5-2.9-3.5
			c-1.9,0-3,1.2-3,3.5v9.6h-4.9L124.6,165.7L124.6,165.7z"/>
		<path class="st2" d="M141.7,174.4L141.7,174.4c0-5,3.5-9,8.5-9c5.7,0,8.4,4.4,8.4,9.3c0,0.4,0,0.8-0.1,1.3h-11.9
			c0.5,2.2,2,3.4,4.2,3.4c1.6,0,2.8-0.5,4.2-1.8l2.8,2.5c-1.6,2-3.9,3.2-7,3.2C145.5,183.3,141.7,179.7,141.7,174.4z M153.8,173
			c-0.3-2.2-1.6-3.6-3.6-3.6s-3.3,1.4-3.7,3.6H153.8z"/>
		<path class="st2" d="M158.7,180.6l2.1-3.2c1.9,1.3,3.8,2,5.4,2c1.4,0,2-0.5,2-1.3V178c0-1.1-1.7-1.4-3.6-2
			c-2.4-0.7-5.1-1.8-5.1-5.2v-0.1c0-3.5,2.8-5.4,6.3-5.4c2.2,0,4.5,0.7,6.4,2l-1.9,3.4c-1.7-1-3.4-1.6-4.6-1.6
			c-1.2,0-1.8,0.5-1.8,1.2v0.1c0,1,1.6,1.4,3.5,2c2.4,0.8,5.2,2,5.2,5.1v0.1c0,3.8-2.8,5.5-6.6,5.5
			C163.6,183.2,161,182.4,158.7,180.6z"/>
		<path class="st2" d="M172.4,180.6l2.1-3.2c1.9,1.3,3.8,2,5.4,2c1.4,0,2-0.5,2-1.3V178c0-1.1-1.7-1.4-3.6-2
			c-2.4-0.7-5.1-1.8-5.1-5.2v-0.1c0-3.5,2.8-5.4,6.3-5.4c2.2,0,4.5,0.7,6.4,2l-1.9,3.4c-1.7-1-3.4-1.6-4.6-1.6
			c-1.2,0-1.8,0.5-1.8,1.2v0.1c0,1,1.6,1.4,3.5,2c2.4,0.8,5.2,2,5.2,5.1v0.1c0,3.8-2.8,5.5-6.6,5.5
			C177.3,183.2,174.6,182.4,172.4,180.6z"/>
		<path class="st2" d="M64.4,207.6l2.1-3.2c1.9,1.3,3.8,2,5.4,2c1.4,0,2-0.5,2-1.3V205c0-1.1-1.7-1.4-3.6-2
			c-2.4-0.7-5.1-1.8-5.1-5.2v-0.1c0-3.5,2.8-5.4,6.3-5.4c2.2,0,4.5,0.7,6.4,2l-1.9,3.4c-1.7-1-3.4-1.6-4.6-1.6s-1.8,0.5-1.8,1.2v0.1
			c0,1,1.6,1.4,3.5,2c2.4,0.8,5.2,2,5.2,5.1v0.1c0,3.8-2.8,5.5-6.6,5.5C69.3,210.2,66.6,209.4,64.4,207.6z"/>
		<path class="st2" d="M78.8,201.4L78.8,201.4c0-5,3.7-9,9-9c3.2,0,5.2,1.1,6.8,2.9l-3,3.2c-1.1-1.2-2.2-1.9-3.9-1.9
			c-2.4,0-4.2,2.1-4.2,4.7v0.1c0,2.6,1.7,4.7,4.4,4.7c1.6,0,2.8-0.7,3.9-1.8l2.8,2.9c-1.7,1.8-3.6,3.1-7,3.1
			C82.6,210.3,78.8,206.3,78.8,201.4z"/>
		<path class="st2" d="M95.9,186.5h4.9v8.6c1.1-1.4,2.6-2.8,5-2.8c3.7,0,5.8,2.4,5.8,6.4v11.1h-4.9v-9.6c0-2.3-1.1-3.5-2.9-3.5
			c-1.9,0-3,1.2-3,3.5v9.6h-4.9V186.5z"/>
		<path class="st2" d="M112.9,201.4L112.9,201.4c0-5,4-9,9.3-9s9.2,3.9,9.2,8.9v0.1c0,4.9-4,8.9-9.3,8.9
			C116.8,210.3,112.9,206.3,112.9,201.4z M126.7,201.4L126.7,201.4c0-2.6-1.8-4.8-4.5-4.8c-2.8,0-4.4,2.1-4.4,4.7v0.1
			c0,2.5,1.8,4.7,4.5,4.7C125,206.1,126.7,203.9,126.7,201.4z"/>
		<path class="st2" d="M132.1,201.4L132.1,201.4c0-5,4-9,9.3-9s9.2,3.9,9.2,8.9v0.1c0,4.9-4,8.9-9.3,8.9
			C136,210.3,132.1,206.3,132.1,201.4z M145.8,201.4L145.8,201.4c0-2.6-1.8-4.8-4.5-4.8c-2.8,0-4.4,2.1-4.4,4.7v0.1
			c0,2.5,1.8,4.7,4.5,4.7C144.2,206.1,145.8,203.9,145.8,201.4z"/>
		<path class="st2" d="M152.3,186.5h4.9v23.4h-4.9V186.5z"/>
	</g>
	<g>
		<path class="st0" d="M247.6,192.9h4.9v2.4c1.1-1.4,2.6-2.8,5.1-2.8c2.2,0,3.9,1,4.8,2.7c1.5-1.8,3.3-2.7,5.6-2.7
			c3.6,0,5.8,2.2,5.8,6.3V210h-4.9v-9.6c0-2.3-1-3.5-2.8-3.5s-2.9,1.2-2.9,3.5v9.6h-4.9v-9.6c0-2.3-1-3.5-2.8-3.5s-2.9,1.2-2.9,3.5
			v9.6h-4.9v-17.1H247.6z"/>
		<path class="st0" d="M274.7,205.1L274.7,205.1c0-3.8,2.8-5.5,6.9-5.5c1.7,0,3,0.3,4.2,0.7V200c0-2-1.2-3.1-3.7-3.1
			c-1.9,0-3.2,0.4-4.7,0.9l-1.2-3.7c1.9-0.8,3.7-1.4,6.7-1.4c2.7,0,4.6,0.7,5.8,1.9c1.3,1.3,1.9,3.2,1.9,5.5v10h-4.7v-1.9
			c-1.2,1.3-2.8,2.2-5.2,2.2C277.3,210.3,274.7,208.5,274.7,205.1z M285.8,204v-0.9c-0.8-0.4-1.9-0.6-3.1-0.6
			c-2.1,0-3.4,0.8-3.4,2.4v0.1c0,1.3,1.1,2.1,2.7,2.1C284.3,207,285.8,205.7,285.8,204z"/>
		<path class="st0" d="M292.4,186.7h4.9v12.4l5.7-6.2h5.8l-6.5,6.8L309,210h-5.6l-4.5-7l-1.7,1.8v5.2h-4.9v-23.3H292.4z"/>
		<path class="st0" d="M307.4,201.5L307.4,201.5c0-5,3.5-9,8.5-9c5.7,0,8.4,4.4,8.4,9.3c0,0.4,0,0.8-0.1,1.3h-11.9
			c0.5,2.2,2,3.4,4.2,3.4c1.6,0,2.8-0.5,4.2-1.8l2.8,2.5c-1.6,2-3.9,3.2-7,3.2C311.2,210.4,307.4,206.8,307.4,201.5z M319.5,200.1
			c-0.3-2.2-1.6-3.6-3.6-3.6s-3.3,1.4-3.7,3.6H319.5z"/>
		<path class="st0" d="M325.6,192.9h4.9v3.5c1-2.4,2.6-3.9,5.5-3.8v5.1h-0.3c-3.2,0-5.2,2-5.2,6v6.3h-4.9V192.9z"/>
		<path class="st0" d="M335.3,207.8l2.1-3.2c1.9,1.3,3.8,2,5.4,2c1.4,0,2-0.5,2-1.3v-0.1c0-1.1-1.7-1.4-3.6-2
			c-2.4-0.7-5.1-1.8-5.1-5.2v-0.1c0-3.5,2.8-5.4,6.3-5.4c2.2,0,4.5,0.7,6.4,2L347,198c-1.7-1-3.4-1.6-4.6-1.6s-1.8,0.5-1.8,1.2v0.1
			c0,1,1.6,1.4,3.5,2c2.4,0.8,5.2,2,5.2,5.1v0.1c0,3.8-2.8,5.5-6.6,5.5C340.3,210.3,337.6,209.5,335.3,207.8z"/>
		<path class="st0" d="M349.3,195.9c2.2-0.2,3.3-1.3,3.1-3.2h-2v-5.1h5.2v4.3c0,4.2-2.1,5.9-5.9,6L349.3,195.9z"/>
		<path class="st0" d="M364.9,186.7h4.9V210h-4.9V186.7z"/>
		<path class="st0" d="M371.1,205.1L371.1,205.1c0-3.8,2.8-5.5,6.9-5.5c1.7,0,3,0.3,4.2,0.7V200c0-2-1.2-3.1-3.7-3.1
			c-1.9,0-3.2,0.4-4.7,0.9l-1.2-3.7c1.9-0.8,3.7-1.4,6.7-1.4c2.7,0,4.6,0.7,5.8,1.9c1.3,1.3,1.9,3.2,1.9,5.5v10h-4.7v-1.9
			c-1.2,1.3-2.8,2.2-5.2,2.2C373.7,210.3,371.1,208.5,371.1,205.1z M382.2,204v-0.9c-0.8-0.4-1.9-0.6-3.1-0.6
			c-2.1,0-3.4,0.8-3.4,2.4v0.1c0,1.3,1.1,2.1,2.7,2.1C380.7,207,382.2,205.7,382.2,204z"/>
		<path class="st0" d="M393.6,207.8v2.2h-4.9v-23.4h4.9v8.7c1.2-1.6,2.8-2.8,5.3-2.8c4,0,7.8,3.1,7.8,8.9v0.1c0,5.7-3.7,8.9-7.8,8.9
			C396.4,210.3,394.8,209.2,393.6,207.8z M401.9,201.5L401.9,201.5c0-2.9-1.9-4.8-4.2-4.8c-2.3,0-4.2,1.9-4.2,4.7v0.1
			c0,2.8,1.9,4.7,4.2,4.7S401.9,204.4,401.9,201.5z"/>
	</g>
</g>
</svg>
